<?xml version="1.0" encoding="UTF-8" standalone="no"?>
<svg width="111px" height="106px" viewBox="0 0 111 106" version="1.1" xmlns="http://www.w3.org/2000/svg" xmlns:xlink="http://www.w3.org/1999/xlink">
    <!-- Generator: Sketch 39.1 (31720) - http://www.bohemiancoding.com/sketch -->
    <title>editing</title>
    <desc>Created with Sketch.</desc>
    <defs>
        <ellipse id="path-1" cx="24.5430762" cy="24.5408928" rx="23.9984145" ry="23.9969588"></ellipse>
        <rect id="path-3" x="28.1592442" y="72.6437741" width="15.7894737" height="48.1300011" rx="7.89473684"></rect>
        <mask id="mask-4" maskContentUnits="userSpaceOnUse" maskUnits="objectBoundingBox" x="0" y="0" width="15.7894737" height="48.1300011" fill="white">
            <use xlink:href="#path-3"></use>
        </mask>
        <path d="M60.8050618,61.547578 C46.8528149,75.4998248 24.3139516,75.5820233 10.4631017,61.7311733 C-3.3877483,47.8803233 -3.30554987,25.3414601 10.646697,11.3892132 C24.5989439,-2.56303368 47.1378071,-2.64523212 60.9886571,11.2056178 C74.8395071,25.0564678 74.7573086,47.5953311 60.8050618,61.547578 Z M52.4453343,53.1878505 C43.1438364,62.4893484 28.1179275,62.5441474 18.8840276,53.3102474 C9.65012759,44.0763474 9.70492655,29.0504386 19.0064245,19.7489407 C28.3079224,10.4474427 43.3338312,10.3926438 52.5677312,19.6265438 C61.8016312,28.8604437 61.7468322,43.8863526 52.4453343,53.1878505 Z" id="path-5"></path>
        <mask id="mask-6" maskContentUnits="userSpaceOnUse" maskUnits="objectBoundingBox" x="0" y="0" width="71.1947592" height="71.1947592" fill="white">
            <use xlink:href="#path-5"></use>
        </mask>
    </defs>
    <g id="Page-1" stroke="none" stroke-width="1" fill="none" fill-rule="evenodd">
        <g id="Reedsy-learning" transform="translate(-337.000000, -589.000000)">
            <g id="editing" transform="translate(329.000000, 573.000000)">
                <path d="M57,122 C84.0619527,122 106,114.934015 106,108.909091 C106,102.884166 84.0619527,98 57,98 C29.9380473,98 8,102.884166 8,108.909091 C8,114.934015 29.9380473,122 57,122 Z" id="Oval-5-Copy" fill="#273034"></path>
                <g id="Group-5" transform="translate(29.000000, 36.000000)">
                    <rect id="Rectangle-9" stroke="#273034" stroke-width="2" fill="#FFFFFF" x="0" y="0" width="59" height="75" rx="4.40999981"></rect>
                    <rect id="Rectangle-188" fill="#E4E4E4" x="4.39361702" y="5.72033898" width="50.8404255" height="1.90677966" rx="0.953389831"></rect>
                    <rect id="Rectangle-188" fill="#E4E4E4" x="4.39361702" y="10.8050847" width="50.8404255" height="1.90677966" rx="0.953389831"></rect>
                    <rect id="Rectangle-188" fill="#E4E4E4" x="4.39361702" y="15.8898305" width="50.8404255" height="1.90677966" rx="0.953389831"></rect>
                    <rect id="Rectangle-188" fill="#E4E4E4" x="4.39361702" y="20.9745763" width="50.8404255" height="1.90677966" rx="0.953389831"></rect>
                    <rect id="Rectangle-188" fill="#E4E4E4" x="4.39361702" y="26.059322" width="50.8404255" height="1.90677966" rx="0.953389831"></rect>
                    <rect id="Rectangle-188" fill="#E4E4E4" x="4.39361702" y="31.1440678" width="50.8404255" height="1.90677966" rx="0.953389831"></rect>
                    <rect id="Rectangle-188" fill="#E4E4E4" x="4.39361702" y="36.2288136" width="50.8404255" height="1.90677966" rx="0.953389831"></rect>
                    <rect id="Rectangle-188" fill="#E4E4E4" x="4.39361702" y="41.3135593" width="50.8404255" height="1.90677966" rx="0.953389831"></rect>
                    <rect id="Rectangle-188" fill="#E4E4E4" x="4.39361702" y="46.3983051" width="50.8404255" height="1.90677966" rx="0.953389831"></rect>
                    <rect id="Rectangle-188" fill="#E4E4E4" x="4.39361702" y="51.4830508" width="50.8404255" height="1.90677966" rx="0.953389831"></rect>
                    <rect id="Rectangle-188" fill="#E4E4E4" x="4.39361702" y="56.5677966" width="50.8404255" height="1.90677966" rx="0.953389831"></rect>
                    <rect id="Rectangle-188" fill="#E4E4E4" x="4.39361702" y="61.6525424" width="50.8404255" height="1.90677966" rx="0.953389831"></rect>
                    <rect id="Rectangle-188" fill="#E4E4E4" x="4.39361702" y="66.7372881" width="50.8404255" height="1.90677966" rx="0.953389831"></rect>
                </g>
                <g id="Group-5" transform="translate(27.000000, 27.000000)">
                    <mask id="mask-2" fill="white">
                        <use xlink:href="#path-1"></use>
                    </mask>
                    <use id="Mask" fill="#D8D8D8" xlink:href="#path-1"></use>
                    <g mask="url(#mask-2)">
                        <g transform="translate(-4.454545, -3.181818)">
                            <rect id="Rectangle-9" stroke="#606060" stroke-width="1.24740002" fill="#FFFFFF" x="0" y="0" width="78.9090909" height="99.2727273" rx="5.8212001"></rect>
                            <rect id="Rectangle-188" stroke="none" fill="#E4E4E4" x="5.8762089" y="7.57164869" width="67.9961315" height="2.5238829" rx="1.26194145"></rect>
                            <rect id="Rectangle-188" stroke="none" fill="#E4E4E4" x="5.8762089" y="14.3020031" width="67.9961315" height="2.5238829" rx="1.26194145"></rect>
                            <rect id="Rectangle-188" stroke="none" fill="#E4E4E4" x="5.8762089" y="21.0323575" width="67.9961315" height="2.5238829" rx="1.26194145"></rect>
                            <rect id="Rectangle-188" stroke="none" fill="#E4E4E4" x="5.8762089" y="27.7627119" width="67.9961315" height="2.5238829" rx="1.26194145"></rect>
                            <rect id="Rectangle-188" stroke="none" fill="#E4E4E4" x="5.8762089" y="34.4930663" width="67.9961315" height="2.5238829" rx="1.26194145"></rect>
                            <rect id="Rectangle-188" stroke="none" fill="#E4E4E4" x="5.8762089" y="41.2234206" width="67.9961315" height="2.5238829" rx="1.26194145"></rect>
                            <rect id="Rectangle-188" stroke="none" fill="#E4E4E4" x="5.8762089" y="47.953775" width="67.9961315" height="2.5238829" rx="1.26194145"></rect>
                            <rect id="Rectangle-188" stroke="none" fill="#E4E4E4" x="5.8762089" y="54.6841294" width="67.9961315" height="2.5238829" rx="1.26194145"></rect>
                            <rect id="Rectangle-188" stroke="none" fill="#E4E4E4" x="5.8762089" y="61.4144838" width="67.9961315" height="2.5238829" rx="1.26194145"></rect>
                            <rect id="Rectangle-188" stroke="none" fill="#E4E4E4" x="5.8762089" y="68.1448382" width="67.9961315" height="2.5238829" rx="1.26194145"></rect>
                            <rect id="Rectangle-188" stroke="none" fill="#E4E4E4" x="5.8762089" y="74.8751926" width="67.9961315" height="2.5238829" rx="1.26194145"></rect>
                            <rect id="Rectangle-188" stroke="none" fill="#E4E4E4" x="5.8762089" y="81.605547" width="67.9961315" height="2.5238829" rx="1.26194145"></rect>
                            <rect id="Rectangle-188" stroke="none" fill="#E4E4E4" x="5.8762089" y="88.3359014" width="67.9961315" height="2.5238829" rx="1.26194145"></rect>
                        </g>
                    </g>
                </g>
                <g id="Group-6" transform="translate(70.149067, 66.964181) rotate(-50.000000) translate(-70.149067, -66.964181) translate(34.149067, 6.464181)">
                    <rect id="Rectangle-11" fill="#273034" x="30.3157895" y="64.3297297" width="10.7368421" height="46.4" rx="4.40999981"></rect>
                    <use id="Rectangle-11" stroke="#273034" mask="url(#mask-4)" stroke-width="3.77999984" fill="#6B818C" xlink:href="#path-3"></use>
                    <use id="Oval-5-Copy-3" stroke="#273034" mask="url(#mask-6)" stroke-width="5.03999978" fill="#F8D763" xlink:href="#path-5"></use>
                    <path d="M20.5280961,31.5281547 C20.5280961,30.97587 20.9790215,30.5281547 21.5228672,30.5281547 L38.5333249,30.5281547 C39.0827218,30.5281547 39.5280961,30.9720195 39.5280961,31.5281547 C39.5280961,32.0804395 39.0771707,32.5281547 38.5333249,32.5281547 L21.5228672,32.5281547 C20.9734703,32.5281547 20.5280961,32.0842899 20.5280961,31.5281547 Z M48.5280961,38.5281547 C48.5280961,37.97587 48.9747947,37.5281547 49.5240382,37.5281547 L55.032154,37.5281547 C55.5821976,37.5281547 56.0280961,37.9720195 56.0280961,38.5281547 C56.0280961,39.0804395 55.5813974,39.5281547 55.032154,39.5281547 L49.5240382,39.5281547 C48.9739945,39.5281547 48.5280961,39.0842899 48.5280961,38.5281547 Z M18.5280961,44.5281547 C18.5280961,43.97587 18.9782688,43.5281547 19.519113,43.5281547 L35.0370791,43.5281547 C35.5844027,43.5281547 36.0280961,43.9720195 36.0280961,44.5281547 C36.0280961,45.0804395 35.5779233,45.5281547 35.0370791,45.5281547 L19.519113,45.5281547 C18.9717895,45.5281547 18.5280961,45.0842899 18.5280961,44.5281547 Z M23.5280961,51.5281547 C23.5280961,50.97587 23.976025,50.5281547 24.5267919,50.5281547 L27.0294002,50.5281547 C27.5809647,50.5281547 28.0280961,50.9720195 28.0280961,51.5281547 C28.0280961,52.0804395 27.5801672,52.5281547 27.0294002,52.5281547 L24.5267919,52.5281547 C23.9752274,52.5281547 23.5280961,52.0842899 23.5280961,51.5281547 Z M33.5280961,38.5281547 C33.5280961,37.97587 33.976025,37.5281547 34.5267919,37.5281547 L37.0294002,37.5281547 C37.5809647,37.5281547 38.0280961,37.9720195 38.0280961,38.5281547 C38.0280961,39.0804395 37.5801672,39.5281547 37.0294002,39.5281547 L34.5267919,39.5281547 C33.9752274,39.5281547 33.5280961,39.0842899 33.5280961,38.5281547 Z M43.5280961,18.5281547 C43.5280961,17.97587 43.976025,17.5281547 44.5267919,17.5281547 L47.0294002,17.5281547 C47.5809647,17.5281547 48.0280961,17.9720195 48.0280961,18.5281547 C48.0280961,19.0804395 47.5801672,19.5281547 47.0294002,19.5281547 L44.5267919,19.5281547 C43.9752274,19.5281547 43.5280961,19.0842899 43.5280961,18.5281547 Z M41.5280961,24.5281547 C41.5280961,23.97587 41.985093,23.5281547 42.5365366,23.5281547 L49.0196555,23.5281547 C49.5766018,23.5281547 50.0280961,23.9720195 50.0280961,24.5281547 C50.0280961,25.0804395 49.5710991,25.5281547 49.0196555,25.5281547 L42.5365366,25.5281547 C41.9795903,25.5281547 41.5280961,25.0842899 41.5280961,24.5281547 Z M41.5280961,51.5281547 C41.5280961,50.97587 41.985093,50.5281547 42.5365366,50.5281547 L49.0196555,50.5281547 C49.5766018,50.5281547 50.0280961,50.9720195 50.0280961,51.5281547 C50.0280961,52.0804395 49.5710991,52.5281547 49.0196555,52.5281547 L42.5365366,52.5281547 C41.9795903,52.5281547 41.5280961,52.0842899 41.5280961,51.5281547 Z" id="Combined-Shape" fill="#FF9E9E" transform="translate(37.278096, 35.028155) rotate(51.000000) translate(-37.278096, -35.028155) "></path>
                </g>
            </g>
        </g>
    </g>
</svg>