<?xml version="1.0" encoding="UTF-8"?>

<svg width="256" height="151" viewBox="0 0 256 151" xmlns="http://www.w3.org/2000/svg" xmlns:xlink="http://www.w3.org/1999/xlink"><title>Rectangle 8</title><defs><rect id="b" width="24.833" height="24.764" rx="2.368"/><filter x="-2%" y="-2%" width="104%" height="108.1%" filterUnits="objectBoundingBox" id="a"><feOffset dy="1" in="SourceAlpha" result="shadowOffsetOuter1"/><feComposite in="shadowOffsetOuter1" in2="SourceAlpha" operator="out" result="shadowOffsetOuter1"/><feColorMatrix values="0 0 0 0 0.478431373 0 0 0 0 0.596078431 0 0 0 0 0.729411765 0 0 0 0.2 0" in="shadowOffsetOuter1"/></filter><rect id="c" width="17.738" height="15.92" rx="1.184"/><rect id="e" x="5.321" y="6.486" width="4.73" height="4.717" rx="2.358"/><path d="M-.59 12.677s5.91-2.36 13.302 3.537c7.39 5.896-13.303 1.77-13.303 1.77v-5.307z" id="f"/><rect id="h" width="24.833" height="24.764" rx="2.368"/><filter x="-2%" y="-2%" width="104%" height="108.1%" filterUnits="objectBoundingBox" id="g"><feOffset dy="1" in="SourceAlpha" result="shadowOffsetOuter1"/><feComposite in="shadowOffsetOuter1" in2="SourceAlpha" operator="out" result="shadowOffsetOuter1"/><feColorMatrix values="0 0 0 0 0.478431373 0 0 0 0 0.596078431 0 0 0 0 0.729411765 0 0 0 0.2 0" in="shadowOffsetOuter1"/></filter><rect id="i" width="17.738" height="15.92" rx="1.184"/><rect id="k" x="5.321" y="6.486" width="4.73" height="4.717" rx="2.358"/><path d="M-.59 12.677s5.91-2.36 13.302 3.537c7.39 5.896-13.303 1.77-13.303 1.77v-5.307z" id="l"/><path d="M29.563 6.375H24.65c-.982 0-1.776-.794-1.776-1.767V0" id="n"/><filter x="-7.5%" y="-7.8%" width="115%" height="131.4%" filterUnits="objectBoundingBox" id="m"><feOffset dy="1" in="SourceAlpha" result="shadowOffsetOuter1"/><feMorphology radius="1" in="SourceAlpha" result="shadowInner"/><feOffset dy="1" in="shadowInner" result="shadowInner"/><feComposite in="shadowOffsetOuter1" in2="shadowInner" operator="out" result="shadowOffsetOuter1"/><feColorMatrix values="0 0 0 0 0.478431373 0 0 0 0 0.596078431 0 0 0 0 0.729411765 0 0 0 0.2 0" in="shadowOffsetOuter1"/></filter><path d="M3.94 13.795S5.85 13.56 8 8.417c1.91 3.507 9.55 5.846 11.938 5.378 2.387-.468.955.468.477.468-.477 0-.477 5.143-.477 5.845 0 .7 1.91-.234 1.91-2.806s.477-2.104.477-2.104 2.627-1.637 2.15-2.806c-.478-1.17-2.388-1.637-2.388-2.572s.955-2.104.238-2.806c-.716-.7-1.91-1.636-2.15-2.104C19.94 4.442 18.265 0 11.82 0 5.37 0 4.18 4.676 3.7 5.144 3.224 5.61.598 6.668 1.553 8.417 2.507 10.167.12 10.054.12 10.99c0 .934-.478 2.337.477 3.273.955.935 1.91.935 1.91.935s-.24 3.507.24 4.208c.476.702 1.193.468 1.193.468v-6.08z" id="o"/><path d="M51.902 79.332h18.913c1.635 0 2.96 1.325 2.96 2.96v7.052c0 1.635-1.325 2.96-2.96 2.96h-2.063v4.127l-4.212-4.12H51.902c-1.635 0-2.96-1.32-2.96-2.96V82.3c0-1.636 1.325-2.96 2.96-2.96z" id="q"/><filter x="-6.4%" y="-9.3%" width="120.9%" height="130.3%" filterUnits="objectBoundingBox" id="p"><feMorphology radius=".592" operator="dilate" in="SourceAlpha" result="shadowSpreadOuter1"/><feOffset dx="2" dy="2" in="shadowSpreadOuter1" result="shadowOffsetOuter1"/><feComposite in="shadowOffsetOuter1" in2="SourceAlpha" operator="out" result="shadowOffsetOuter1"/><feColorMatrix values="0 0 0 0 0.478431373 0 0 0 0 0.596078431 0 0 0 0 0.729411765 0 0 0 0.2 0" in="shadowOffsetOuter1"/></filter><path d="M200.487 53.605h48.385c1.96 0 3.552 1.59 3.552 3.552v11.565c0 1.962-1.59 3.552-3.552 3.552h-48.385c-1.96 0-3.552-1.59-3.552-3.552V57.157c0-1.962 1.59-3.552 3.552-3.552z" id="s"/><filter x="-3.1%" y="-9.2%" width="109.8%" height="129%" filterUnits="objectBoundingBox" id="r"><feMorphology radius=".71" operator="dilate" in="SourceAlpha" result="shadowSpreadOuter1"/><feOffset dx="2" dy="2" in="shadowSpreadOuter1" result="shadowOffsetOuter1"/><feComposite in="shadowOffsetOuter1" in2="SourceAlpha" operator="out" result="shadowOffsetOuter1"/><feColorMatrix values="0 0 0 0 0.478431373 0 0 0 0 0.596078431 0 0 0 0 0.729411765 0 0 0 0.2 0" in="shadowOffsetOuter1"/></filter><path d="M120.982 17.617h47.07c1.963 0 3.553 1.59 3.553 3.552v11.56c0 1.96-1.59 3.55-3.552 3.55h-47.07c-1.963 0-3.553-1.59-3.553-3.55V21.17c0-1.962 1.59-3.553 3.552-3.553z" id="u"/><filter x="-3.2%" y="-9.2%" width="110%" height="129%" filterUnits="objectBoundingBox" id="t"><feMorphology radius=".71" operator="dilate" in="SourceAlpha" result="shadowSpreadOuter1"/><feOffset dx="2" dy="2" in="shadowSpreadOuter1" result="shadowOffsetOuter1"/><feComposite in="shadowOffsetOuter1" in2="SourceAlpha" operator="out" result="shadowOffsetOuter1"/><feColorMatrix values="0 0 0 0 0.478431373 0 0 0 0 0.596078431 0 0 0 0 0.729411765 0 0 0 0.2 0" in="shadowOffsetOuter1"/></filter><path d="M217.465 40.91s.777 5.394-.96 7.175c-1.736 1.782 4.34-1.07 3.907-3.74-.434-2.673-2.947-3.434-2.947-3.434z" id="v"/><path d="M228.98 39.213s-.697 5.546 2.563 8.716c3.26 3.16.7 1.38 0-3.97-.698-5.35-2.562-4.76-2.562-4.76z" id="w"/><path d="M215.435 38.786c-.63-2.59-.94-5.2-.94-7.34 0-6.934 4.016-11.004 9.485-11.14 5.47-.136 9.156 2.108 10.6 7.298.586 2.106.22 6.235-.886 10.398-1.62 6.096-4.624 10.208-8.866 10.208s-7.98-3.626-9.393-9.424z" id="x"/><path d="M221.588 16.247s-3.018-3.073.71-5.604c3.727-2.53 12.423 2.893 13.31 6.87.888 3.977-4.614 2.53-4.614 2.53l-9.406-3.796z" id="y"/><path d="M214.274 36.617s13.096-5.348 15.6-14.707c4.043 2.865 6.162 9.168 6.162 9.168s3.08-10.123-5.778-14.325-14.287.51-16.61 5.157c-2.325 4.647-.722 12.415.626 14.707z" id="z"/><path d="M20.47 22.17h6.022c1.033 0 1.87.838 1.87 1.872 0 .205-.033.408-.1.603l-.28 2.776c-.13 1.28-1.2 2.25-2.48 2.25h-4.78c-1.28 0-2.35-.97-2.48-2.24l-.254-2.5c-.14-1.37.86-2.59 2.23-2.73.083-.01.167-.01.25-.01z" id="A"/><path d="M32.116 22.17H37.5c1.377 0 2.493 1.117 2.493 2.494 0 .084-.004.168-.013.252l-.254 2.505c-.13 1.28-1.2 2.25-2.48 2.25h-4.882c-1.247 0-2.302-.92-2.47-2.15-.18-1.32-.272-2.25-.272-2.79v-.03c-.01-1.37 1.098-2.5 2.475-2.51h.02z" id="B"/><path d="M5.835.155c2.206 0 4.516-.15 5.595 0 .34.53-1.118 5.38-5.537 5.38-4.418 0-5.7-4.85-5.7-5.38 1.29-.15 3.436 0 5.642 0z" id="C"/><rect id="E" x="2.956" y="14.74" width="1.183" height="3.538" rx=".591"/><rect id="F" x="10.051" y="10.023" width="1.183" height="3.538" rx=".591"/><rect id="G" x="12.416" y="14.74" width="1.183" height="2.948" rx=".591"/><rect id="H" x="13.599" y="10.613" width="1.183" height="2.358" rx=".591"/><rect id="I" x="10.051" y="17.688" width="1.183" height="2.358" rx=".591"/><rect id="J" x="2.956" y="5.307" width="1.183" height="3.538" rx=".591"/><rect id="K" x="4.73" y="2.358" width="1.183" height="2.358" rx=".591"/><rect id="L" x="4.73" y="11.203" width="1.183" height="2.358" rx=".591"/><rect id="M" x="6.504" y="17.099" width="1.183" height="3.538" rx=".591"/><rect id="N" x="6.504" y="5.896" width="1" height="2.358" rx=".5"/><path d="M3.552 46.605h52.32c1.96 0 3.552 1.59 3.552 3.552V61.46c0 1.96-1.59 3.55-3.552 3.55H3.552C1.59 65.01 0 63.42 0 61.46V50.156c0-1.962 1.59-3.552 3.552-3.552z" id="P"/><filter x="-2.9%" y="-9.3%" width="109.1%" height="129.5%" filterUnits="objectBoundingBox" id="O"><feMorphology radius=".71" operator="dilate" in="SourceAlpha" result="shadowSpreadOuter1"/><feOffset dx="2" dy="2" in="shadowSpreadOuter1" result="shadowOffsetOuter1"/><feComposite in="shadowOffsetOuter1" in2="SourceAlpha" operator="out" result="shadowOffsetOuter1"/><feColorMatrix values="0 0 0 0 0.478431373 0 0 0 0 0.596078431 0 0 0 0 0.729411765 0 0 0 0.2 0" in="shadowOffsetOuter1"/></filter></defs><g transform="translate(1 1)" fill="none" fill-rule="evenodd"><path d="M175.554 39.99s-14.486-1.474-20.694 11.202m27.48 30.425s22.173-.295 26.903 12.676c4.73 12.972-13.303 12.378-13.303 5.602 0-6.777 14.78-3.538 15.668 17.098" stroke="#555" stroke-width=".592" opacity=".3" stroke-linecap="round" stroke-linejoin="round" stroke-dasharray="2.368"/><g transform="rotate(18 -120.853 554.34)"><use fill="#000" filter="url(#a)" xlink:href="#b"/><use fill="#FFF" xlink:href="#b"/><rect stroke="#555" stroke-width=".888" x=".444" y=".444" width="23.945" height="23.876" rx="2.368"/></g><g transform="rotate(18 -133.795 563.77)"><mask id="d" fill="#fff"><use xlink:href="#c"/></mask><g stroke-linecap="round"><use fill="#C5EBFF" xlink:href="#c"/><rect stroke="#555" stroke-width=".888" x="-.444" y="-.444" width="18.625" height="16.808" rx="1.184"/></g><g mask="url(#d)"><use fill="#F8D763" xlink:href="#e"/><rect stroke="#555" stroke-width=".592" x="5.617" y="6.782" width="4.138" height="4.125" rx="2.062"/></g><path d="M-.858 15.064L3.408 8.21c.346-.556 1.076-.726 1.63-.38.115.07.215.16.3.264L6.65 9.73c.41.51 1.155.592 1.665.183.112-.09.207-.2.28-.323l3.01-5.124c.333-.564 1.058-.752 1.622-.42.162.094.3.227.4.385l4.397 6.93-.286 4.85-17.166.57-1.43-.85v-.85z" stroke="#555" stroke-width=".592" fill="#FFF" mask="url(#d)"/><g mask="url(#d)"><use fill="#ABD733" xlink:href="#f"/><path stroke="#555" stroke-width=".592" d="M-.295 12.887v4.852l.07.01c.25.05.537.1.855.16.91.16 1.886.33 2.894.48 1.166.17 2.297.33 3.366.44 2.92.31 5.13.35 6.308.03 1.206-.33 1.145-.98-.67-2.42-4.558-3.64-8.8-4.46-12.23-3.72-.25.05-.448.11-.593.15z"/></g></g><g transform="rotate(30 -31.268 347.476)"><use fill="#000" filter="url(#g)" xlink:href="#h"/><use fill="#FFF" xlink:href="#h"/><rect stroke="#555" stroke-width=".888" x=".444" y=".444" width="23.945" height="23.876" rx="2.368"/></g><g transform="rotate(30 -39.643 352.327)"><mask id="j" fill="#fff"><use xlink:href="#i"/></mask><g stroke-linecap="round"><use fill="#FFF7DA" xlink:href="#i"/><rect stroke="#555" stroke-width=".888" x="-.444" y="-.444" width="18.625" height="16.808" rx="1.184"/></g><g mask="url(#j)"><use fill="#F8D763" xlink:href="#k"/><rect stroke="#555" stroke-width=".592" x="5.617" y="6.782" width="4.138" height="4.125" rx="2.062"/></g><path d="M-.858 15.064L3.408 8.21c.346-.556 1.076-.726 1.63-.38.115.07.215.16.3.264L6.65 9.73c.41.51 1.155.592 1.665.183.112-.09.207-.2.28-.323l3.01-5.124c.333-.564 1.058-.752 1.622-.42.162.094.3.227.4.385l4.397 6.93-.286 4.85-17.166.57-1.43-.85v-.85z" stroke="#555" stroke-width=".592" fill="#FFF" mask="url(#j)"/><g mask="url(#j)"><use fill="#ABD733" xlink:href="#l"/><path stroke="#555" stroke-width=".592" d="M-.295 12.887v4.852l.07.01c.25.05.537.1.855.16.91.16 1.886.33 2.894.48 1.166.17 2.297.33 3.366.44 2.92.31 5.13.35 6.308.03 1.206-.33 1.145-.98-.67-2.42-4.558-3.64-8.8-4.46-12.23-3.72-.25.05-.448.11-.593.15z"/></g></g><path d="M132.152 53.94l20.777 3.665 5.48 7.44-5.04 28.555c-.17.962-1.09 1.61-2.06 1.44l-25.61-4.52c-.97-.17-1.61-1.09-1.44-2.057l5.83-33.083c.17-.966 1.09-1.61 2.06-1.44z" stroke="#555" stroke-width=".888" fill="#FFF" stroke-linecap="round"/><g transform="rotate(10 -241.31 772.07)"><use fill="#000" filter="url(#m)" xlink:href="#n"/><path stroke="#555" stroke-width=".888" d="M28.453 5.93l-5.135-4.893v3.57c0 .73.597 1.324 1.33 1.324h3.805z"/></g><path d="M138.763 63.336l14.56 2.567c.32.056.535.362.48.683-.058.32-.364.535-.685.478l-14.56-2.567c-.32-.057-.534-.362-.478-.683.057-.32.363-.535.683-.478zm-7.498 2.423l23.293 4.1c.32.05.535.36.48.68-.058.32-.364.53-.684.47l-23.294-4.1c-.32-.06-.535-.37-.48-.69.058-.32.364-.54.685-.48zm-.615 3.48l23.294 4.1c.32.05.535.36.478.68-.056.32-.362.53-.683.47l-23.3-4.11c-.32-.06-.54-.36-.48-.69.05-.32.36-.54.68-.48zm-.614 3.48l23.294 4.1c.32.05.535.36.478.68-.056.32-.362.53-.683.48l-23.295-4.1c-.32-.06-.53-.37-.47-.69.057-.32.36-.54.684-.48zm-.614 3.48l23.294 4.1c.32.05.534.36.478.68-.057.32-.363.53-.683.48l-23.29-4.11c-.32-.06-.53-.37-.48-.69.06-.33.36-.54.69-.48z" fill="#E2EAED"/><path d="M136.334 64.258l-.687-.12c-.077-.015-.137-.045-.18-.09-.043-.047-.07-.1-.082-.16l-.19-1.01-1.977-.35-.524.886c-.026.046-.07.085-.128.116-.06.032-.126.04-.2.028l-.69-.122 2.694-4.314.908.16 1.056 4.976zm-2.78-2.3l1.52.27-.308-1.648c-.014-.074-.03-.16-.044-.258-.016-.1-.03-.206-.04-.32-.05.103-.1.2-.145.29-.047.088-.09.165-.132.23l-.852 1.437z" fill="#555"/><path d="M26.614 148.435h197.81" stroke="#555" stroke-width="1.184" stroke-linecap="round"/><path d="M60.985 142.707h129.482c.327 0 .592.265.592.592v2.35c0 1.63-1.32 2.95-2.95 2.95H63.34c-1.627 0-2.947-1.32-2.947-2.95v-2.35c0-.33.265-.6.592-.6zm14.865-.23h99.33V82.355c0-2.615-2.12-4.736-4.735-4.736H80.587c-2.616 0-4.736 2.12-4.736 4.73v60.12z" stroke="#555" stroke-width="1.184" fill="#FFF" stroke-linecap="round"/><path d="M80.43 142.898h89.87V84.534c0-.98-.794-1.776-1.775-1.776H82.207c-.98 0-1.776.795-1.776 1.776v58.364z" stroke="#555" stroke-width="1.184" fill="#FFF" stroke-linecap="round"/><path d="M120.837 95.412c-.814 0-1.474-.66-1.474-1.474s.66-1.474 1.474-1.474h10.06c.814 0 1.474.66 1.474 1.474s-.66 1.474-1.47 1.474h-10.06zm-19.466 9.706c-.81 0-1.47-.66-1.47-1.474s.66-1.474 1.48-1.474h48.49c.82 0 1.48.66 1.48 1.474s-.66 1.474-1.47 1.474h-48.49zm0 5.138c-.81 0-1.47-.66-1.47-1.474s.66-1.474 1.48-1.474h48.49c.82 0 1.48.66 1.48 1.474s-.66 1.474-1.47 1.474h-48.49zm0 5.14c-.81 0-1.47-.66-1.47-1.475 0-.81.66-1.47 1.48-1.47h48.49c.82 0 1.48.66 1.48 1.48s-.66 1.48-1.47 1.48h-48.49zm0 5.708c-.81 0-1.47-.66-1.47-1.474s.66-1.474 1.48-1.474h48.49c.82 0 1.48.66 1.48 1.474s-.66 1.474-1.47 1.474h-48.49zm0 5.14c-.81 0-1.47-.66-1.47-1.475 0-.82.66-1.48 1.48-1.48h48.49c.82 0 1.48.66 1.48 1.47 0 .81-.66 1.47-1.47 1.47h-48.49zm0 5.137c-.81 0-1.47-.66-1.47-1.47 0-.81.66-1.47 1.48-1.47h30.76c.82 0 1.48.66 1.48 1.48s-.66 1.48-1.47 1.48h-30.76z" fill="#6C96A7" opacity=".2"/><path d="M111.92 142.707h27.198v1.172c0 .98-.795 1.77-1.776 1.77h-23.646c-.98 0-1.776-.8-1.776-1.78v-1.17z" stroke="#555" stroke-width="1.184" fill="#FFF" stroke-linecap="round"/><path fill="#F8D763" d="M135.394 111.876h1.183v4.127h-1.183z"/><path fill="#F8D763" d="M140.678 111.876h-4.14v1.77h4.14z"/><path fill="#ABD733" d="M123.502 117.585h-4.14v1.77h4.14z"/><path fill="#ABD733" d="M118.218 117.585h1.183v4.127h-1.18z"/><rect stroke="#555" stroke-width="1.184" fill="#FFF" stroke-linecap="round" x="65.546" y="70.768" width="44.935" height="41.862" rx="4.736"/><g transform="translate(76.188 79.023)"><path d="M11.94 27.122c4.482 0 8.117-3.978 8.117-8.885 0-11.223-3.635-12.626-8.118-12.626-4.49 0-8.12 1.64-8.12 12.63 0 4.91 3.63 8.89 8.12 8.89z" stroke="#555" stroke-width=".947" fill="#FFEEE8" stroke-linecap="round"/><ellipse fill="#F25153" opacity=".2" cx="11.877" cy="22.873" rx="1.37" ry="1.362"/><path d="M9.073 21.043c.57 1.098 1.72 1.848 3.048 1.848 1.31 0 2.44-.72 3.02-1.78" stroke="#555" stroke-width=".947" stroke-linecap="round"/><path d="M7.64 16.367s.205-.935 1.433-.935 1.433.78 1.433.78m6.208.155s-.204-.935-1.432-.935-1.433.78-1.433.78" stroke="#555" stroke-width=".758" stroke-linecap="round"/><use fill="#F8D763" xlink:href="#o"/><path stroke="#555" stroke-width=".947" d="M4.413 14.14v6.078l-.326.106c-.033.01-.08.023-.138.034-.34.063-.7.03-1.05-.17-.21-.12-.4-.292-.55-.515-.27-.388-.36-1.155-.38-2.303-.01-.524 0-1.083.03-1.634v-.122c-.52-.116-1.14-.42-1.75-1.012-.53-.52-.74-1.168-.74-1.976 0-.268.02-.5.06-.913.04-.427.05-.555.05-.724 0-.53.28-.8.9-1.15l.17-.1c.65-.38.73-.53.42-1.1-.65-1.2-.11-2.19 1.15-3.1.21-.15 1.02-.67 1.09-.74-.1.1.87-1.68 1.62-2.53C6.51.54 8.71-.48 11.81-.48c3.103 0 5.41.98 7.044 2.615.516.52.932 1.077 1.27 1.65.12.206.222.4.32.6.043.09.137.295.144.31.09.18.42.5 1.22 1.21.443.396.63.57.84.77.566.557.52 1.07.13 2.22l-.033.09c-.14.41-.196.636-.196.833 0 .136.14.316.51.595.11.084.63.453.53.383.7.5 1.08.88 1.3 1.412.15.385.11.797-.09 1.212-.22.432-.59.864-1.08 1.3-.26.223-.53.433-.8.626-.17.116-.29.2-.37.25l-.14.085c-.07.27-.12.8-.12 1.62 0 1.27-.42 2.31-1.09 2.97-.29.28-.62.47-.91.52-.46.08-.85-.2-.85-.68v-1.09c0-.62.02-1.23.04-1.81.05-1.52.11-2.42.27-2.91-3.02.4-9.36-2.02-11.7-4.9-.86 1.88-1.74 3.18-2.6 3.99-.42.39-.78.63-1.08.76z"/></g><ellipse stroke="#555" stroke-width="1.184" fill="#84DAFC" stroke-linecap="round" cx="110.776" cy="81.676" rx="3.843" ry="3.832"/><ellipse stroke="#555" stroke-width="1.184" fill="#FFE585" stroke-linecap="round" cx="110.776" cy="91.699" rx="3.843" ry="3.832"/><ellipse stroke="#555" stroke-width="1.184" fill="#98B2FF" stroke-linecap="round" cx="110.776" cy="101.723" rx="3.843" ry="3.832"/><ellipse stroke="#555" stroke-width="1.184" fill="#EDFAFF" stroke-linecap="round" cx="28.804" cy="33.254" rx="20.694" ry="20.636"/><ellipse stroke="#555" stroke-width="1.184" fill="#FFF7DA" stroke-linecap="round" cx="99.397" cy="26.634" rx="20.694" ry="20.636"/><path d="M100.066 34.3c6.822 0 12.66-6.654 11.735-14.972-.92-8.317-4.91-14.97-11.73-14.97s-10.81 6.32-11.73 14.97c-.93 8.65 4.91 14.972 11.73 14.972z" stroke="#555" stroke-width="1.184" fill="#FFEEE8" stroke-linecap="round"/><path d="M96.548 33.14c.337 0 .675-1.332 2.7-1.332 2.024 0 3.036.665 3.036.998 0 .333-1.687 2.33-3.037 1.663-1.35-.67-3.037-1.33-2.7-1.33z" stroke="#555" stroke-width=".592" fill="#EAADAD"/><path d="M87.742 22.492c.586-.665 1.466-.665 1.76.666.064.296-.743 3.26 1.758 3.992 2.5.732 1.173-1.33 8.7-1.33 7.916-.333 6.45 2.283 8.6 1.663 2.15-.62 1.545-3.384 1.76-3.993.586-1.663 1.758-.998 2.052-.332.293.665 3.336 16.635-12.61 16.635-15.943 0-12.607-16.635-12.02-17.3zm11.982 6.86c-1.903 0-3.736 0-3.736.46s-.076 4.657 3.736 4.657c3.812 0 3.887-4.2 3.595-4.66-.3-.46-1.7-.46-3.6-.46zM88.53 12.837s-2.052-.634-2.052-3.487c0-2.536 2.584-2.97 2.584-2.97s.28-5.53 8.785-5.846c8.505-.317 7.99.895 10.626 3.743 1.412 1.25 2.932-.95 4.4 0 .506.33-.186 6.275-1.76 6.975-1.575.7-1.577-1.902-1.76-1.902-.88 0-4.986 5.706-10.85 0-4.107-4.122-9.972 3.487-9.972 3.487z" stroke="#555" stroke-width="1.184" fill="#FFF" stroke-linecap="round"/><path d="M93.902 20.58s.298-1.67 2.086-1.67c1.79 0 2.087 1.393 2.087 1.393m7.512.277s-.298-1.67-2.086-1.67c-1.78 0-2.08 1.393-2.08 1.393" stroke="#555" stroke-width="1.219" stroke-linecap="round"/><ellipse stroke="#555" stroke-width="1.184" fill="#E1F1BD" stroke-linecap="round" cx="224.629" cy="37.165" rx="20.694" ry="20.636"/><g stroke-linecap="round"><use fill="#000" filter="url(#p)" xlink:href="#q"/><use stroke="#555" stroke-width="1.184" fill="#FFF" xlink:href="#q"/></g><g stroke-linecap="round"><use fill="#000" filter="url(#r)" xlink:href="#s"/><use stroke="#555" stroke-width="1.421" fill="#FFF" xlink:href="#s"/></g><g stroke-linecap="round"><use fill="#000" filter="url(#t)" xlink:href="#u"/><use stroke="#555" stroke-width="1.421" fill="#FFF" xlink:href="#u"/></g><path d="M57.722 87.872h-.963v-2.244h-2.41v2.244h-.97v-5.136h.96v2.21h2.41v-2.21h.96v5.136zm4.276-5.136v.76H59.72v1.425h1.795v.74H59.72v1.46H62v.77h-3.24v-5.14H62zm3.112 3.14v1.996h-.956v-1.996l-1.872-3.14h.842c.083 0 .15.02.197.06.05.04.09.092.13.153l.94 1.71c.06.1.11.2.15.29.04.09.08.18.11.27.03-.09.07-.18.11-.27.04-.09.09-.19.14-.29l.94-1.72c.03-.06.07-.1.12-.15.06-.05.12-.07.2-.07H67l-1.87 3.14zm3.552-3.14v2.032c0 .215-.01.427-.032.634-.022.207-.05.427-.086.66h-.593c-.03-.233-.06-.453-.08-.66-.02-.207-.03-.42-.03-.634v-2.032h.83zM67.7 87.39c0-.074.013-.144.04-.21.027-.067.065-.123.114-.17.048-.048.105-.086.172-.114.066-.03.137-.043.213-.043.07 0 .14.014.2.043.06.028.12.066.17.113.05.04.08.1.11.17.03.06.04.13.04.21 0 .07-.02.14-.05.21-.03.06-.07.12-.11.17-.05.04-.11.08-.17.11-.07.02-.14.04-.21.04-.08 0-.15-.02-.21-.04-.07-.03-.13-.07-.17-.12-.05-.05-.09-.11-.12-.17-.03-.07-.04-.14-.04-.21zm144.495-28.553v1.07h-3.205v2.005h2.525v1.035h-2.525v2.045h3.205v1.075h-4.56v-7.23h4.56zm7.585 3.615c0 .53-.09 1.016-.265 1.46-.177.443-.425.825-.745 1.145-.32.32-.705.568-1.155.745-.45.176-.95.265-1.495.265h-2.76v-7.23h2.76c.546 0 1.045.09 1.495.267.45.18.835.427 1.155.745.32.31.568.69.745 1.14.176.44.265.93.265 1.46zm-1.375 0c0-.397-.054-.753-.16-1.068-.107-.315-.26-.58-.455-.8-.197-.218-.436-.386-.718-.502-.282-.117-.6-.175-.952-.175h-1.405v5.09h1.405c.353 0 .67-.06.952-.175.282-.117.52-.284.718-.503.196-.22.348-.49.455-.8.106-.32.16-.68.16-1.07zm3.945 3.615H221v-7.23h1.35v7.23zm6.72-7.23v1.105h-2.175v6.125h-1.345v-6.125h-2.185v-1.105h5.705zm7.79 3.615c0 .53-.09 1.02-.265 1.472-.177.452-.425.843-.745 1.173-.32.33-.705.587-1.155.772-.45.18-.95.27-1.495.27-.547 0-1.046-.1-1.498-.28-.452-.19-.838-.45-1.16-.78-.322-.33-.57-.72-.747-1.18-.177-.45-.265-.94-.265-1.47s.088-1.02.265-1.48c.176-.46.425-.85.747-1.18.322-.33.708-.59 1.16-.78.452-.19.95-.28 1.498-.28.546 0 1.045.09 1.495.28.45.18.835.44 1.155.77.32.33.568.72.745 1.17.176.45.265.94.265 1.47zm-1.38 0c0-.397-.053-.753-.158-1.068-.105-.315-.256-.582-.452-.802-.197-.22-.436-.39-.718-.505-.282-.117-.6-.175-.952-.175-.354 0-.672.058-.955.175-.284.116-.525.285-.723.505-.198.22-.35.487-.457.802-.107.315-.16.67-.16 1.068 0 .396.053.752.16 1.067.106.31.26.58.457.8.198.21.44.38.723.5.283.11.6.17.955.17.353 0 .67-.06.952-.18.282-.12.52-.29.718-.51.196-.22.347-.49.452-.8.105-.32.158-.67.158-1.07zm3.83.79v2.825h-1.345v-7.23h2.205c.493 0 .915.05 1.267.152.352.1.64.24.865.42.225.18.39.4.495.65.105.25.158.53.158.84 0 .24-.036.47-.108.69-.072.21-.175.41-.31.59-.135.17-.302.33-.5.46s-.424.24-.677.32c.17.09.316.23.44.41l1.81 2.67h-1.21c-.117 0-.216-.03-.298-.07-.082-.05-.15-.12-.207-.2l-1.52-2.32c-.057-.09-.12-.15-.188-.19s-.17-.06-.302-.06h-.575zm0-.965h.84c.253 0 .474-.032.662-.095.188-.064.343-.15.465-.263.122-.12.213-.25.273-.4.06-.16.09-.32.09-.51 0-.37-.12-.65-.363-.85-.242-.2-.61-.3-1.107-.3h-.86v2.4zm-108.826-32.19h-1.04c-.117 0-.212-.03-.287-.088-.075-.06-.13-.14-.163-.22l-.54-1.48h-2.995l-.54 1.47c-.03.07-.08.14-.16.21-.08.06-.18.09-.29.09h-1.05l2.84-7.23h1.37l2.84 7.23zm-4.68-2.73h2.305l-.88-2.406c-.04-.1-.09-.23-.14-.37-.05-.14-.1-.3-.15-.47-.05.17-.09.33-.14.48-.05.15-.09.28-.14.39l-.88 2.4zM134.14 29c.26 0 .492-.042.697-.13.205-.085.378-.207.52-.364.14-.156.25-.346.325-.57.075-.223.112-.473.112-.75v-4.33h1.345v4.33c0 .43-.07.828-.21 1.193-.14.36-.34.68-.6.94-.26.26-.58.47-.95.62-.37.15-.79.22-1.25.22-.47 0-.88-.08-1.25-.22-.37-.15-.69-.36-.95-.62-.26-.27-.46-.58-.6-.95-.14-.37-.21-.77-.21-1.2v-4.33h1.34v4.32c0 .27.03.52.11.75.07.22.18.41.32.57.14.16.31.28.52.36.2.09.43.13.69.13zm9.464-6.144v1.105h-2.175v6.13h-1.35v-6.13h-2.18v-1.1h5.7zm6.955 7.23h-1.36v-3.16h-3.39v3.16h-1.36v-7.23h1.35v3.11h3.39v-3.11h1.35v7.23zm8.39-3.615c0 .53-.09 1.03-.27 1.48-.18.45-.43.84-.75 1.17-.32.33-.71.59-1.16.78-.45.19-.95.28-1.5.28s-1.05-.09-1.5-.28c-.46-.18-.84-.44-1.16-.77-.33-.33-.57-.72-.75-1.17-.18-.45-.27-.94-.27-1.47s.08-1.02.26-1.47c.17-.45.42-.84.74-1.17.32-.33.71-.59 1.16-.77.45-.18.95-.27 1.49-.27s1.04.1 1.49.28c.45.19.83.45 1.15.77.32.33.57.72.74 1.17.18.45.27.94.27 1.47zm-1.38 0c0-.39-.05-.75-.16-1.06-.11-.31-.26-.58-.46-.8-.2-.22-.44-.38-.72-.5-.28-.11-.6-.17-.96-.17s-.67.06-.96.18c-.29.12-.53.29-.73.51-.2.22-.35.49-.46.81-.11.32-.16.67-.16 1.07s.05.75.16 1.07c.1.31.25.58.45.8.2.21.44.38.72.5.28.12.6.17.95.17s.67-.05.95-.17c.28-.11.52-.28.71-.5.2-.22.35-.48.45-.8.1-.31.15-.67.15-1.07zm3.83.79v2.83h-1.35v-7.23h2.2c.49 0 .91.05 1.27.16.35.1.64.25.86.43.22.19.39.41.49.66.1.26.15.54.15.85 0 .24-.04.47-.11.69-.08.22-.18.41-.31.59s-.31.33-.5.47c-.2.14-.43.24-.68.32.17.1.32.24.44.42l1.81 2.67h-1.21c-.12 0-.22-.02-.3-.07-.08-.05-.15-.11-.21-.2l-1.52-2.31c-.06-.08-.12-.14-.19-.18-.07-.03-.17-.05-.3-.05h-.58zm0-.96h.84c.25 0 .47-.03.66-.09.19-.06.34-.15.46-.26.12-.11.21-.24.27-.4.06-.15.09-.32.09-.5 0-.36-.12-.65-.37-.84-.24-.19-.61-.29-1.11-.29h-.86v2.4z" fill="#555"/><path d="M50.106 76.622v-3.57m-2.794 5.225l-2.377-2.37m1.587 5.157h-3.878m147.73-10.722v-3.57m2.273 5.796l2.377-2.37m-1.804 5.156h3.877" stroke="#555" stroke-width="1.184" stroke-linecap="round"/><path d="M67.836 48.5s12.712.886 15.077 6.487c2.365 5.6-2.957 9.73-6.504 7.665-3.55-2.064 5.61-9.728 11.52 2.653" stroke="#555" stroke-width=".592" opacity=".3" stroke-linecap="round" stroke-linejoin="round" stroke-dasharray="2.368"/><ellipse stroke="#555" stroke-width=".592" opacity=".2" cx="65.583" cy="58.816" rx="1.183" ry="1.179"/><ellipse stroke="#555" stroke-width=".592" opacity=".2" cx="92.492" cy="53.845" rx="1.183" ry="1.179"/><ellipse stroke="#555" stroke-width=".592" opacity=".2" cx="119.401" cy="69.664" rx="1.183" ry="1.179"/><ellipse stroke="#555" stroke-width=".592" opacity=".2" cx="190.309" cy="88.997" rx="1.183" ry="1.179"/><ellipse stroke="#555" stroke-width=".592" opacity=".2" cx="145.737" cy="50.252" rx="1.183" ry="1.179"/><ellipse stroke="#555" stroke-width="1.184" fill="#FFE585" stroke-linecap="round" cx="124.923" cy="9.565" rx="5.913" ry="5.896"/><ellipse stroke="#555" stroke-width="1.184" fill="#E1F1BD" stroke-linecap="round" cx="247.928" cy="17.097" rx="5.913" ry="5.896"/><use fill="#F8D763" xlink:href="#v"/><path stroke="#555" stroke-width="1.305" d="M217.654 40.286c.456.138 1.098.45 1.74 1 .864.74 1.462 1.72 1.662 2.954.244 1.498-.94 3.01-2.726 4.19-.668.44-1.33.76-1.768.84-.513.094-1.03-.066-1.022-.73.003-.322.173-.577.498-.91.492-.506.8-1.528.905-2.9.074-.954.048-1.984-.04-2.978-.033-.35-.064-.61-.084-.748l-.15-1.015.98.29z"/><use fill="#F8D763" xlink:href="#w"/><path stroke="#555" stroke-width="1.305" d="M228.783 38.59c.048-.013.048-.013.132-.03.655-.113 1.406.204 2.023 1.143.572.87.998 2.23 1.252 4.18.266 2.034.7 3.35 1.434 4.993.164.368.176.397.187.555.05.61-.57.88-1 .63-.08-.04-.14-.1-.24-.18-.05-.04-.97-.98-1.48-1.47-.98-.96-1.69-2.16-2.15-3.54-.61-1.81-.75-3.7-.63-5.34.02-.18.03-.31.04-.38l.05-.41.4-.12z"/><use fill="#FFEEE8" xlink:href="#x"/><path stroke="#555" stroke-width="1.184" d="M214.86 38.926c-.623-2.552-.956-5.216-.956-7.48 0-7.017 4.052-11.583 10.06-11.732 5.888-.146 9.703 2.402 11.186 7.73.617 2.22.255 6.428-.884 10.71-1.778 6.685-5.062 10.648-9.438 10.648-4.592 0-8.51-3.894-9.968-9.876z"/><path d="M218.738 34.112s.303-1.717 2.12-1.717c1.82 0 2.122 1.43 2.122 1.43m7.635.287s-.303-1.717-2.12-1.717c-1.82 0-2.122 1.43-2.122 1.43" stroke="#555" stroke-width="1.253" stroke-linecap="round"/><ellipse fill="#F25153" opacity=".2" cx="224.252" cy="43.094" rx="1.697" ry="1.718"/><path d="M220.435 40.947c.704 1.383 2.13 2.33 3.773 2.33 1.612 0 3.013-.91 3.73-2.25" stroke="#555" stroke-width="1.243" stroke-linecap="round"/><use fill="#F8D763" xlink:href="#y"/><path stroke="#555" stroke-width="1.184" d="M221.165 16.662c-.174-.178-.42-.48-.662-.884-.835-1.393-.977-2.91.063-4.323.343-.465.807-.9 1.4-1.302 3.88-2.636 13.178 2.558 14.22 7.23.506 2.264-.714 3.39-2.805 3.5-.6.032-1.24-.02-1.86-.128-.3-.05-.53-.103-.74-.162l-9.52-3.843-.09-.088z"/><use fill="#F8D763" xlink:href="#z"/><path stroke="#555" stroke-width="1.184" d="M230.19 22.905c-1.194 3.526-3.858 6.696-7.553 9.505-1.78 1.353-3.682 2.533-5.586 3.533-.66.35-1.28.654-1.84.91-.33.153-.58.258-.71.312l-.47.194-.26-.45c-1.94-3.31-2.72-11.13-.64-15.27 3.2-6.39 9.46-9.19 17.4-5.43 3.12 1.48 5.06 3.76 6 6.61.78 2.37.8 4.87.37 7.21-.06.32-.12.62-.18.87-.03.15-.07.27-.08.33L236.1 33l-.59-1.76c-.026-.08-.078-.22-.158-.43-.136-.35-.297-.75-.484-1.17-.532-1.21-1.17-2.42-1.902-3.55-.842-1.3-1.76-2.39-2.74-3.22z"/><ellipse stroke="#555" stroke-width="1.305" fill="#FFF" cx="235.282" cy="38.764" rx="1.273" ry="1.288"/><ellipse stroke="#555" stroke-width="1.305" fill="#FFF" cx="214.071" cy="38.764" rx="1.273" ry="1.288"/><ellipse stroke="#555" stroke-width="1.184" fill="#84DAFC" stroke-linecap="round" cx="54.157" cy="16.265" rx="5.913" ry="5.896"/><path d="M16.26 17.47s-3.014 26.22 12.795 25.723c14.71-.793 13.247-21.297 12.22-25.043-1.03-3.746-9.596-11.58-15.764-10.217-6.16 1.362-9.25 9.536-9.25 9.536z" stroke="#555" stroke-width="1.184" fill="#EBC5A4" stroke-linecap="round"/><path d="M16.65 19.695c0-4.086 5.642 3.756 22.09-4.417-.686.34 2.66 2.653 2.956 8.55.296 5.896 2.07 1.177 2.07.59 0-.59.295-9.14-1.48-12.215-1.772-3.075-4.393-3.065-4.393-3.065s-.685-3.065-6.853-4.087c-6.168-1.02-12.678 2.73-15.42 7.16-2.05 3.31-1.713 13.28 0 15.67 1.714 2.39 1.03-4.08 1.03-8.17z" stroke="#555" stroke-width="1.184" fill="#B38C78"/><use fill="#FFF" xlink:href="#A"/><path stroke="#555" stroke-width="1.039" d="M20.47 22.69c-.068 0-.134.003-.2.01-1.085.11-1.875 1.08-1.765 2.163l.254 2.505c.1 1.008.95 1.775 1.96 1.775h4.78c1.01 0 1.86-.767 1.96-1.775l.28-2.776.02-.115c.04-.14.07-.287.07-.435 0-.747-.61-1.352-1.36-1.352h-6.02z"/><use fill="#FFF" xlink:href="#B"/><path stroke="#555" stroke-width="1.039" d="M32.116 22.69H32.1c-1.09.008-1.966.9-1.958 1.99v.032c0 .514.088 1.427.266 2.725.134.978.97 1.706 1.956 1.706h4.88c1.015 0 1.863-.767 1.965-1.775l.25-2.505c0-.066.01-.132.01-.2 0-1.09-.89-1.973-1.98-1.973h-5.38z"/><ellipse stroke="#555" stroke-width=".693" fill="#7A98BA" cx="34.218" cy="25.917" rx="1.028" ry="1.022"/><ellipse stroke="#555" stroke-width=".693" fill="#7A98BA" cx="24.436" cy="25.917" rx="1.028" ry="1.022"/><g transform="translate(23.067 32.963)"><mask id="D" fill="#fff"><use xlink:href="#C"/></mask><use fill="#FFF" xlink:href="#C"/><path stroke="#555" stroke-width="1.039" d="M.804.624c.165.562.535 1.43 1.01 2.127.976 1.43 2.316 2.27 4.08 2.27 1.772 0 3.157-.85 4.123-2.26.372-.54.653-1.14.815-1.68.05-.17.084-.32.107-.44-.53-.03-1.3-.02-2.9.01-.77.02-1.2.03-1.69.04h-.52C5.2.68 4.66.67 3.66.65 2.15.6 1.38.59.807.62z"/><path d="M3.256 3.836s2.184-2.38 5.322-.294c-.296.59-.592 1.18-2.66 1.18-2.07 0-2.366-.886-2.366-.886h-.296z" stroke="#555" stroke-width=".592" fill="#EAADAD" mask="url(#D)"/></g><path d="M27.802 25.007s1.182-1.77 2.365 0" stroke="#555" stroke-width=".592"/><path fill="#555" d="M55.935 13.672v.76H53.66v1.425h1.792v.735H53.66v1.453h2.275v.764h-3.24v-5.14"/><text font-family="Lato-Bold, Lato" font-size="4.092" font-weight="bold" fill="#555"><tspan x="109.63" y="83.332">E</tspan></text><text font-family="Lato-Bold, Lato" font-size="4.092" font-weight="bold" fill="#555"><tspan x="109.339" y="93.038">G</tspan></text><text font-family="Lato-Bold, Lato" font-size="4.092" font-weight="bold" fill="#555"><tspan x="109.36" y="102.911">A</tspan></text><path d="M125.155 11.406c.216 0 .403-.02.563-.06.16-.038.312-.092.457-.16v-.935h-.643c-.062 0-.11-.01-.146-.05-.035-.03-.053-.07-.053-.12v-.54h1.708v2.08c-.13.1-.26.18-.4.25s-.29.13-.45.18c-.16.05-.33.08-.51.1-.18.02-.38.04-.59.04-.37 0-.71-.06-1.03-.19-.31-.13-.58-.31-.81-.54-.23-.23-.41-.51-.53-.83-.13-.32-.19-.67-.19-1.05 0-.39.06-.74.19-1.06.13-.32.3-.6.53-.83.24-.23.52-.41.84-.54.33-.13.7-.19 1.11-.19.42 0 .79.06 1.09.19.31.13.57.29.78.49l-.27.44c-.05.09-.12.135-.21.135-.05 0-.11-.02-.17-.054-.08-.05-.15-.09-.23-.14-.08-.047-.16-.086-.26-.12-.09-.033-.2-.06-.32-.08-.12-.02-.26-.03-.41-.03-.253 0-.482.04-.69.12-.205.08-.38.21-.524.37-.145.16-.256.35-.335.573-.08.22-.12.47-.12.74 0 .3.04.56.13.79.08.23.19.43.34.583.15.16.32.28.53.37.2.08.43.125.67.125zm125.162 8.234h-.74c-.082 0-.15-.02-.203-.062-.053-.04-.092-.093-.116-.154l-.383-1.048h-2.128l-.383 1.048c-.02.054-.057.104-.112.15-.056.044-.124.066-.205.066h-.742l2.018-5.136h.976l2.01 5.136zm-3.325-1.94h1.638l-.625-1.707c-.03-.076-.06-.166-.095-.27-.034-.102-.068-.213-.1-.334l-.098.33c-.032.1-.064.19-.095.27l-.625 1.7z" fill="#555"/><path d="M107.458 59.88l1.126-6.388.624.11.103-.58-1.83-.323-.1.58.63.11-1.12 6.38-.62-.11-.1.58 1.83.32.1-.58-.62-.11zm-.762-5.928l-.136.77-1.52-.268-.752 4.267-.94-.16.753-4.27-1.52-.27.14-.77 3.99.71z" fill="#6C96A7" opacity=".4"/><rect stroke="#555" stroke-width="1.184" fill="#FFF" stroke-linecap="round" x="196.654" y="107.017" width="5.913" height="41.273" rx="1.184"/><rect stroke="#555" stroke-width="1.184" fill="#FFF" stroke-linecap="round" x="205.815" y="119.007" width="5.617" height="29.481" rx="1.184"/><rect stroke="#555" stroke-width="1.184" fill="#FFF" stroke-linecap="round" x="214.403" y="113.018" width="5.617" height="35.377" rx="1.184"/><path d="M168.665 57.45c-2.795-.91-4.32-3.926-3.406-6.74.91-2.813 3.92-4.358 6.71-3.45 2.79.91 4.32 3.926 3.4 6.74-.36 1.108-1.05 2.02-1.92 2.662-.37.274-.07 2.474-.51 2.65-.45.177-1.61-1.686-2.09-1.634-.72.08-1.47.01-2.21-.23zm-1.15-5.068c.464.15.966-.107 1.118-.575.152-.47-.102-.972-.568-1.124-.465-.15-.967.107-1.12.575-.15.47.103.972.57 1.124zm2.53.822c.465.15.966-.106 1.118-.575.153-.47-.1-.98-.567-1.13-.466-.15-.967.1-1.12.57-.152.47.102.97.568 1.12zm2.53.822c.465.15.966-.106 1.12-.575.15-.46-.103-.97-.57-1.12-.465-.15-.966.11-1.118.58-.152.47.102.97.567 1.13z" fill="#6C96A7" opacity=".4"/><path d="M197.54 146.794h2.81c-.1-25.943-.1-38.915 0-38.915h2.217v39.49c0 .65-.53 1.18-1.184 1.18h-3.844c-.49 0-.89-.4-.89-.89s.39-.89.88-.89zm9.16.216h2.81c-.1-18.475-.1-27.712 0-27.712h2.217v28.297c0 .654-.53 1.184-1.184 1.184H206.7c-.49 0-.885-.4-.885-.89s.396-.89.884-.89zm8.587-.384h2.81c-.098-22.406-.098-33.608 0-33.608h2.218v34.193c0 .66-.53 1.19-1.184 1.19h-3.84c-.49 0-.88-.39-.88-.88s.4-.88.89-.88z" fill="#DDE8F5" opacity=".703" style="mix-blend-mode:multiply"/><path d="M60.982 146.703H190.47c.325 0 .59.264.59.59 0 .326-.265.59-.59.59H60.982c-.325 0-.59-.264-.59-.59 0-.326.265-.59.59-.59z" fill="#E1EAF5" style="mix-blend-mode:multiply"/><g transform="translate(34.63 116.443)"><rect stroke="#555" stroke-width="1.184" fill="#ABD733" stroke-linecap="round" x="1.183" width="8.278" height="23.584" rx="4.139"/><rect stroke="#555" stroke-width="1.184" fill="#ABD733" stroke-linecap="round" x="8.278" y="7.075" width="8.278" height="17.099" rx="4.139"/><use fill="#7A98BA" xlink:href="#E"/><rect stroke="#555" stroke-width=".592" x="3.252" y="15.036" width="1" height="2.946" rx=".5"/><use fill="#7A98BA" xlink:href="#F"/><rect stroke="#555" stroke-width=".592" x="10.347" y="10.319" width="1" height="2.946" rx=".5"/><use fill="#7A98BA" xlink:href="#G"/><rect stroke="#555" stroke-width=".592" x="12.712" y="15.036" width="1" height="2.356" rx=".5"/><use fill="#7A98BA" xlink:href="#H"/><rect stroke="#555" stroke-width=".592" x="13.895" y="10.909" width="1" height="1.766" rx=".5"/><use fill="#7A98BA" xlink:href="#I"/><rect stroke="#555" stroke-width=".592" x="10.347" y="17.984" width="1" height="1.766" rx=".5"/><use fill="#7A98BA" xlink:href="#J"/><rect stroke="#555" stroke-width=".592" x="3.252" y="5.603" width="1" height="2.946" rx=".5"/><use fill="#7A98BA" xlink:href="#K"/><rect stroke="#555" stroke-width=".592" x="5.026" y="2.654" width="1" height="1.766" rx=".5"/><use fill="#7A98BA" xlink:href="#L"/><rect stroke="#555" stroke-width=".592" x="5.026" y="11.499" width="1" height="1.766" rx=".5"/><use fill="#7A98BA" xlink:href="#M"/><rect stroke="#555" stroke-width=".592" x="6.8" y="17.395" width="1" height="2.946" rx=".5"/><use fill="#7A98BA" xlink:href="#N"/><rect stroke="#555" stroke-width=".592" x="6.8" y="6.192" width="1" height="1.766" rx=".5"/><path d="M4.324 32.134h8.812c.8 0 1.5-.534 1.713-1.304l2.26-8.24c.26-.946-.3-1.924-1.24-2.185-.16-.042-.31-.063-.47-.063H2.15c-.982 0-1.777.795-1.777 1.776 0 .153.02.305.06.453l2.174 8.24c.206.78.91 1.33 1.717 1.33z" stroke="#555" stroke-width="1.184" fill="#FFF" stroke-linecap="round"/></g><g stroke-linecap="round"><use fill="#000" filter="url(#O)" xlink:href="#P"/><use stroke="#555" stroke-width="1.421" fill="#FFF" xlink:href="#P"/></g><path d="M12.775 55.452c0 .53-.088 1.016-.265 1.46-.176.443-.425.825-.745 1.145-.32.32-.705.568-1.155.745-.45.176-.948.265-1.495.265h-2.76v-7.23h2.76c.547 0 1.045.09 1.495.267.45.18.835.427 1.155.745.32.31.57.69.745 1.14.177.44.265.93.265 1.46zm-1.375 0c0-.397-.053-.753-.16-1.068-.106-.315-.258-.58-.455-.8-.196-.218-.435-.386-.717-.502-.282-.117-.6-.175-.953-.175H7.71v5.09h1.405c.354 0 .67-.06.953-.175.282-.117.52-.284.717-.503.197-.22.35-.49.455-.8.107-.32.16-.68.16-1.07zm6.99-3.615v1.07h-3.205v2.005h2.525v1.035h-2.525v2.045h3.205v1.075h-4.56v-7.23h4.56zm5.04 1.315c-.036.073-.08.125-.127.155-.048.03-.106.045-.173.045-.066 0-.14-.026-.225-.078-.083-.05-.18-.11-.295-.172-.113-.064-.245-.12-.397-.173-.152-.06-.33-.08-.538-.08-.186 0-.35.02-.487.06-.138.04-.255.1-.35.18-.095.08-.166.17-.213.28-.046.11-.07.23-.07.37 0 .17.048.31.143.42.095.11.22.21.377.29.157.08.335.15.535.21s.405.13.613.2c.208.07.412.15.612.25s.38.21.535.36c.157.14.283.32.378.53.095.21.142.46.142.76 0 .32-.055.63-.167.91-.112.29-.275.54-.49.75-.215.21-.478.38-.788.5-.31.12-.665.18-1.065.18-.23 0-.456-.02-.68-.07-.223-.05-.437-.11-.642-.19-.205-.09-.397-.19-.575-.3-.178-.12-.338-.25-.478-.39l.39-.65c.037-.04.08-.08.133-.12.052-.03.11-.048.172-.048.084 0 .174.033.27.1.097.07.21.146.343.23.132.083.287.16.465.23.178.07.392.1.642.1.384 0 .68-.09.89-.27.21-.18.315-.447.315-.787 0-.19-.047-.34-.142-.46-.095-.12-.22-.22-.378-.303-.156-.08-.335-.15-.535-.205-.2-.058-.403-.12-.61-.186-.206-.07-.41-.15-.61-.24-.2-.096-.378-.217-.535-.367-.156-.15-.282-.34-.377-.567-.095-.22-.143-.5-.143-.83 0-.26.053-.52.158-.77.105-.25.258-.47.46-.666.202-.19.45-.35.742-.46.294-.12.63-.176 1.005-.176.427 0 .82.068 1.18.2.36.13.667.32.92.56l-.33.637zm3.005 5.915h-1.35v-7.23h1.35v7.23zm4.945-.99c.304 0 .568-.028.793-.083.225-.055.44-.13.642-.227v-1.315h-.905c-.086 0-.155-.024-.205-.073-.05-.05-.075-.11-.075-.18v-.76h2.405v2.92c-.183.13-.374.25-.572.34-.198.1-.41.18-.635.24-.225.06-.466.11-.723.14-.256.03-.533.04-.83.04-.526 0-1.01-.1-1.455-.28-.443-.19-.826-.44-1.15-.77-.323-.33-.575-.72-.757-1.17-.182-.46-.273-.95-.273-1.49 0-.55.09-1.05.265-1.5.177-.46.428-.85.753-1.17.325-.33.72-.58 1.182-.76.464-.18.984-.27 1.56-.27.59 0 1.1.09 1.533.26.432.17.797.4 1.097.68l-.39.61c-.076.12-.178.18-.305.18-.08 0-.16-.03-.245-.08-.106-.06-.215-.13-.327-.19-.112-.06-.235-.12-.37-.17-.135-.05-.287-.09-.455-.12-.168-.03-.363-.05-.583-.05-.356 0-.68.06-.967.18-.288.12-.534.29-.738.51-.203.22-.36.49-.47.8-.11.31-.165.66-.165 1.05 0 .41.06.782.175 1.11.117.322.28.6.49.82.21.225.46.396.75.51s.607.18.95.18zm4.615-6.24c.06 0 .11.002.15.007.04.005.076.015.108.03s.062.037.092.065c.03.02.064.06.1.11l3.795 4.83c-.013-.12-.022-.23-.027-.35-.005-.11-.008-.22-.008-.31v-4.39h1.185v7.23h-.695c-.106 0-.195-.02-.265-.05-.07-.04-.138-.1-.205-.18l-3.78-4.82c.01.1.018.21.023.32.005.1.007.2.007.28v4.44H35.29v-7.23h.705zm11.415 0v1.07h-3.205v2.005h2.525v1.035h-2.525v2.045h3.205v1.075h-4.56v-7.23h4.56zm2.555 4.405v2.825H48.62v-7.23h2.205c.494 0 .916.05 1.268.152.352.1.64.24.865.42.225.18.39.4.495.65.105.25.157.53.157.84 0 .24-.035.47-.107.69-.072.21-.175.41-.31.59-.135.17-.302.33-.5.46s-.424.24-.678.32c.17.09.317.23.44.41l1.81 2.67h-1.21c-.116 0-.215-.03-.297-.07-.082-.05-.15-.12-.208-.2l-1.52-2.32c-.056-.09-.12-.15-.187-.19-.068-.04-.17-.06-.303-.06h-.575zm0-.965h.84c.254 0 .475-.032.663-.095.188-.064.343-.15.465-.263.122-.12.212-.25.272-.4.06-.16.09-.32.09-.51 0-.37-.12-.65-.362-.85-.242-.2-.61-.3-1.108-.3h-.86v2.4z" fill="#555"/></g></svg>
