<?xml version="1.0" encoding="UTF-8" standalone="no"?>
<svg width="98px" height="119px" viewBox="0 0 98 119" version="1.1" xmlns="http://www.w3.org/2000/svg" xmlns:xlink="http://www.w3.org/1999/xlink">
    <!-- Generator: Sketch 39.1 (31720) - http://www.bohemiancoding.com/sketch -->
    <title>design</title>
    <desc>Created with Sketch.</desc>
    <defs>
        <rect id="path-1" x="23" y="97" width="49" height="3"></rect>
        <mask id="mask-2" maskContentUnits="userSpaceOnUse" maskUnits="objectBoundingBox" x="-2" y="-2" width="53" height="7">
            <rect x="21" y="95" width="53" height="7" fill="white"></rect>
            <use xlink:href="#path-1" fill="black"></use>
        </mask>
        <polygon id="path-3" points="57 0.5 68 106.5 74 106.5 60 0.5"></polygon>
        <mask id="mask-4" maskContentUnits="userSpaceOnUse" maskUnits="objectBoundingBox" x="-2" y="-2" width="21" height="110">
            <rect x="55" y="-1.5" width="21" height="110" fill="white"></rect>
            <use xlink:href="#path-3" fill="black"></use>
        </mask>
        <polygon id="path-5" points="21 0.5 32 106.5 38 106.5 24 0.5"></polygon>
        <mask id="mask-6" maskContentUnits="userSpaceOnUse" maskUnits="objectBoundingBox" x="-2" y="-2" width="21" height="110">
            <rect x="19" y="-1.5" width="21" height="110" fill="white"></rect>
            <use xlink:href="#path-5" fill="black"></use>
        </mask>
        <path d="M41.5,72 L53.5,72 L53.5,81 L41.5,81 L41.5,72 Z M47.5,78 C48.6045695,78 49.5,77.1045695 49.5,76 C49.5,74.8954305 48.6045695,74 47.5,74 C46.3954305,74 45.5,74.8954305 45.5,76 C45.5,77.1045695 46.3954305,78 47.5,78 Z" id="path-7"></path>
        <mask id="mask-8" maskContentUnits="userSpaceOnUse" maskUnits="objectBoundingBox" x="-2" y="-2" width="16" height="13">
            <rect x="39.5" y="70" width="16" height="13" fill="white"></rect>
            <use xlink:href="#path-7" fill="black"></use>
        </mask>
        <path d="M19.2615212,65.0214532 C19.117087,66.1141744 19.8876191,67 20.9945815,67 L73.5142673,67 C74.6158443,67 75.3852851,66.1214317 75.2305818,65.0214532 L67.278267,8.47854678 C67.1245844,7.38582557 66.1083887,6.5 65.0025483,6.5 L28.9942467,6.5 C27.8910846,6.5 26.8806672,7.37856834 26.7352738,8.47854678 L19.2615212,65.0214532 Z" id="path-9"></path>
        <mask id="mask-10" maskContentUnits="userSpaceOnUse" maskUnits="objectBoundingBox" x="-2" y="-2" width="60.0062414" height="64.5">
            <rect x="17.2441255" y="4.5" width="60.0062414" height="64.5" fill="white"></rect>
            <use xlink:href="#path-9" fill="black"></use>
        </mask>
        <rect id="path-11" x="13" y="67" width="69" height="3"></rect>
        <mask id="mask-12" maskContentUnits="userSpaceOnUse" maskUnits="objectBoundingBox" x="-2" y="-2" width="73" height="7">
            <rect x="11" y="65" width="73" height="7" fill="white"></rect>
            <use xlink:href="#path-11" fill="black"></use>
        </mask>
    </defs>
    <g id="Page-1" stroke="none" stroke-width="1" fill="none" fill-rule="evenodd">
        <g id="Reedsy-learning" transform="translate(-507.000000, -576.000000)">
            <g id="design" transform="translate(507.000000, 578.000000)">
                <path d="M49,117 C76.0619527,117 98,109.934015 98,103.909091 C98,97.8841664 76.0619527,93 49,93 C21.9380473,93 0,97.8841664 0,103.909091 C0,109.934015 21.9380473,117 49,117 Z" id="Oval-5-Copy-2" fill="#273034"></path>
                <g id="Rectangle-5-Copy">
                    <use fill="#F8D763" fill-rule="evenodd" xlink:href="#path-1"></use>
                    <use stroke="#273034" mask="url(#mask-2)" stroke-width="4" xlink:href="#path-1"></use>
                </g>
                <g id="Path-33">
                    <use fill="#F8D763" fill-rule="evenodd" xlink:href="#path-3"></use>
                    <use stroke="#273034" mask="url(#mask-4)" stroke-width="4" xlink:href="#path-3"></use>
                </g>
                <g id="Path-33-Copy" transform="translate(29.500000, 53.500000) scale(-1, 1) translate(-29.500000, -53.500000) ">
                    <use fill="#F8D763" fill-rule="evenodd" xlink:href="#path-5"></use>
                    <use stroke="#273034" mask="url(#mask-6)" stroke-width="4" xlink:href="#path-5"></use>
                </g>
                <g id="Combined-Shape">
                    <use fill="#F8D763" fill-rule="evenodd" xlink:href="#path-7"></use>
                    <use stroke="#273034" mask="url(#mask-8)" stroke-width="4" xlink:href="#path-7"></use>
                </g>
                <g id="Path-32">
                    <use fill="#FFFFFF" fill-rule="evenodd" xlink:href="#path-9"></use>
                    <use stroke="#273034" mask="url(#mask-10)" stroke-width="4" xlink:href="#path-9"></use>
                </g>
                <path d="M34.8257469,15 C33.4155062,15 32.7246199,15.644472 32.3934998,16.184979 C31.5435478,17.5729021 32.3107643,19.4372543 32.4730327,19.7967921 L32.4774808,19.8065793 L41.2344598,38.738729 L41.2810764,38.8288443 C41.342105,38.9357638 42.8094599,41.4464347 45.3538003,41.4464347 C45.3797775,41.4464347 45.4055767,41.44625 45.4317318,41.445696 C47.8789247,41.5893634 49.0756543,41.6515947 49.7204577,41.6850186 C50.4650776,41.7237977 50.4650776,41.7237977 50.8833814,41.7714406 L50.9639818,41.7806738 L51.0264338,41.7876909 C51.8786989,41.8835307 52.9393152,42.0028227 54.5143152,44.0250613 L54.5249908,44.038357 C55.0555658,44.6988947 55.5405918,45.3112354 55.9686815,45.8511884 C58.361429,48.8704197 59.2565743,50 60.4107796,50 C60.7632508,50 61.0975735,49.8788614 61.3776289,49.649326 C61.8975284,49.223679 62.3583565,48.3640752 61.5998584,46.6869707 C61.3418658,46.1159944 61.0178627,45.6087266 60.906659,45.4401298 C60.2485111,44.2084312 48.1596917,21.5872794 46.6496346,18.8025694 C44.7796334,15.3538133 40.0053477,15.0360092 34.859019,15 L34.8257469,15 L34.8257469,15 Z M34.8257469,16.1541404 L34.8515461,16.1541404 C39.9708301,16.1899649 44.1369651,16.5218034 45.6806502,19.3687446 C47.2412382,22.2468937 59.9611608,46.0502546 59.9611608,46.0502546 C59.9611608,46.0502546 61.4039619,48.1578073 60.6888777,48.7433719 C60.6050746,48.8120664 60.513087,48.8458596 60.4107796,48.8458596 C59.6405383,48.8458596 58.2829637,46.9146596 55.379213,43.2993379 C53.4750501,40.8549608 52.0425686,40.7421321 51.0847935,40.6333659 C50.1270184,40.5245997 51.0363977,40.6187775 45.4486348,40.2906323 C45.4167861,40.2917403 45.3852932,40.2922943 45.3538003,40.2922943 C43.4129846,40.2922943 42.2368944,38.239217 42.2368944,38.239217 L33.4799154,19.3070673 C33.4799154,19.3070673 32.0561523,16.1541404 34.8257469,16.1541404 Z M39.7080336,18.4192102 C39.2486289,18.4192102 38.7911814,18.5388714 38.3846207,18.7652676 C37.0234876,19.5236764 36.5098155,21.2910808 37.2396675,22.7048566 C37.7286079,23.6521751 38.6757075,24.240325 39.7110583,24.240325 C40.170463,24.240325 40.6280884,24.1206637 41.0344711,23.8942675 C42.3957822,23.1358588 42.9094543,21.368639 42.1794243,19.9546786 C41.6904839,19.0075448 40.7435623,18.4192102 39.7080336,18.4192102 Z M39.7080336,19.5733506 C40.3110244,19.5733506 40.8944435,19.9092516 41.1992305,20.4999868 C41.6404868,21.3546047 41.3312515,22.4189991 40.5085222,22.877516 C40.2542661,23.0191521 39.980794,23.0861846 39.7110583,23.0861846 C39.1082453,23.0861846 38.5246484,22.7502836 38.2198613,22.1599177 C37.7786051,21.3051152 38.0878403,20.240536 38.9105697,19.7822038 C39.1650037,19.6405677 39.4382979,19.5733506 39.7080336,19.5733506 Z M48.5437258,45.0607398 C48.6230816,44.9997718 48.7872453,44.8958029 49.0137481,44.7896485 C49.7723529,44.4341157 50.5457596,44.3828792 51.2609134,44.8072794 C51.286577,44.8225092 51.3121602,44.8383563 51.3376626,44.854829 C52.0756237,45.3314981 52.5781448,46.3604476 52.3395419,47.6638751 C52.2872853,47.9493404 52.4748153,48.2233987 52.758402,48.2760016 C53.0419887,48.3286044 53.3142436,48.1398321 53.3665003,47.8543669 C53.6857774,46.1102358 52.9811356,44.6674291 51.9016142,43.9701369 C51.8650455,43.9465161 51.8282507,43.9237241 51.7912359,43.9017581 C50.7343408,43.2745553 49.6141093,43.3487682 48.5729936,43.8367045 C48.2717779,43.9778742 48.0454247,44.1212293 47.9101696,44.225144 C47.6809447,44.4012546 47.6369475,44.731075 47.8118992,44.9618184 C47.9868509,45.1925618 48.3145008,45.2368504 48.5437258,45.0607398 Z M39.4423511,28.6317826 C39.4553694,28.6564807 39.4796768,28.7015558 39.515076,28.7656557 C39.573102,28.8707276 39.6418184,28.9921068 39.7210292,29.128442 C39.9462419,29.516071 40.2110332,29.9472051 40.5138626,30.4110441 C41.378509,31.7354092 42.3763297,33.0596533 43.4958855,34.2974963 C45.4165627,36.4211035 47.4934716,38.0669861 49.7085826,39.0460158 C51.5896323,39.8774551 52.7959034,39.5991443 52.9594231,38.2055198 C53.0660199,37.2970312 52.6669088,35.9647018 51.8843425,34.249574 C51.6742523,33.7891255 51.439348,33.308839 51.1828973,32.8116714 C50.8263924,32.1205339 50.4502299,31.437869 50.0456722,30.734675 C49.8804124,30.4474238 49.4774524,29.7603708 49.4579521,29.7232173 C49.3232464,29.4665645 49.0073568,29.3684303 48.752393,29.5040284 C48.4974292,29.6396264 48.3999407,29.9576085 48.5346465,30.2142613 C48.5676601,30.2771617 48.9909302,30.9988436 49.142022,31.2614684 C49.5391477,31.9517442 49.9078495,32.6208692 50.2561347,33.2960716 C50.5052124,33.7789456 50.7327771,34.2442256 50.9353991,34.6883063 C51.6389475,36.2302529 51.9987511,37.4313645 51.9223833,38.0822222 C51.8638617,38.580982 51.4630368,38.6734603 50.1284081,38.0835435 C48.0639372,37.1710934 46.0980765,35.6132129 44.268051,33.5898352 C43.1882577,32.3959559 42.2228915,31.1147833 41.3865234,29.8337316 C41.0939977,29.3856747 40.8387309,28.9700484 40.6224336,28.5977642 C40.4937229,28.3762314 40.4072851,28.2197122 40.3647971,28.1391041 C40.229643,27.8826903 39.9135824,27.7851157 39.6588559,27.9211651 C39.4041295,28.0572145 39.307197,28.3753688 39.4423511,28.6317826 Z" id="Parrot-Copy" fill="#CBCBCB"></path>
                <g id="Rectangle-5">
                    <use fill="#F8D763" fill-rule="evenodd" xlink:href="#path-11"></use>
                    <use stroke="#273034" mask="url(#mask-12)" stroke-width="4" xlink:href="#path-11"></use>
                </g>
                <circle id="Oval-8" fill="#D8D8D8" cx="27.5" cy="58.5" r="2.5"></circle>
                <circle id="Oval-8-Copy" fill="#D8D8D8" cx="37.5" cy="58.5" r="2.5"></circle>
                <circle id="Oval-8-Copy-2" fill="#D8D8D8" cx="47.5" cy="58.5" r="2.5"></circle>
                <circle id="Oval-8-Copy-3" fill="#D8D8D8" cx="57.5" cy="58.5" r="2.5"></circle>
                <circle id="Oval-8-Copy-4" fill="#D8D8D8" cx="67.5" cy="58.5" r="2.5"></circle>
            </g>
        </g>
    </g>
</svg>