<?xml version="1.0" encoding="UTF-8"?>
<svg width="1112px" height="254px" viewBox="0 0 1112 254" version="1.1" xmlns="http://www.w3.org/2000/svg" xmlns:xlink="http://www.w3.org/1999/xlink">
    <!-- Generator: Sketch 45.1 (43504) - http://www.bohemiancoding.com/sketch -->
    <title>Group</title>
    <desc>Created with Sketch.</desc>
    <defs>
        <polygon id="path-1" points="0 0 637.5 0 1275 0 1275 533 0 533"></polygon>
        <rect id="path-3" x="202" y="279" width="100" height="120" rx="8"></rect>
        <rect id="path-4" x="1114" y="293" width="55" height="69" rx="8"></rect>
        <path d="M306.043807,443 L324.7838,443 L324.7838,443 C326.122416,443 327.299059,442.113141 327.66776,440.826302 L335.403702,413.826302 L335.403702,413.826302 C335.860056,412.233535 334.938811,410.572394 333.346044,410.11604 C333.07736,410.039058 332.799236,410 332.519742,410 L314.225625,410 L314.225625,410 C312.903883,410 311.737867,410.865038 311.354552,412.129978 L303.172734,439.129978 L303.172734,439.129978 C302.692234,440.715628 303.588135,442.390573 305.173785,442.871073 C305.455884,442.956558 305.749041,443 306.043807,443 Z" id="path-5"></path>
    </defs>
    <g id="Stories" stroke="none" stroke-width="1" fill="none" fill-rule="evenodd">
        <g id="reedsy-blog" transform="translate(-92.000000, -126.000000)">
            <g id="Group" transform="translate(637.500000, 113.500000) scale(-1, 1) translate(-637.500000, -113.500000) translate(0.000000, -153.000000)">
                <mask id="mask-2" fill="white">
                    <use xlink:href="#path-1"></use>
                </mask>
                <g id="Rectangle-5" transform="translate(637.500000, 266.500000) scale(1, -1) translate(-637.500000, -266.500000) "></g>
                <rect id="Rectangle-6" fill="#D1F2FF" mask="url(#mask-2)" x="140" y="443" width="223" height="102" rx="8"></rect>
                <rect id="Rectangle-6-Copy-6" fill="#D1F2FF" mask="url(#mask-2)" x="1100" y="443" width="83" height="102" rx="8"></rect>
                <rect id="Rectangle-6-Copy-3" fill="#D1F2FF" mask="url(#mask-2)" x="830" y="510" width="74" height="7" rx="3.5"></rect>
                <path d="M842.569413,489 L855.49581,489 L855.49581,489 C856.710837,489 857.69581,489.984974 857.69581,491.2 C857.69581,491.294741 857.689691,491.389383 857.677489,491.483335 L855.646104,507.125002 L855.646104,507.125002 C855.432541,508.769436 854.03183,510 852.373586,510 L846.098275,510 L846.098275,510 C844.471931,510 843.088067,508.815099 842.837634,507.208152 L840.395652,491.538768 L840.395652,491.538768 C840.208556,490.338233 841.03011,489.213336 842.230645,489.026239 C842.342722,489.008773 842.455983,489 842.569413,489 Z" id="Path-21" fill="#D1F2FF" mask="url(#mask-2)"></path>
                <path d="M857.35924,495.730238 C859.447423,495.454006 860.178417,495.797823 860.342985,496.668611 C860.416653,497.058414 860.073588,497.94955 859.153691,499.222584 C858.070779,500.721214 856.313705,502.580669 853.891432,504.77788 L856.108568,507.22212 C861.565203,502.272479 864.098033,498.767325 863.585586,496.055798 C863.035869,493.147059 860.552577,491.979065 856.926474,492.458738 L857.35924,495.730238 Z" id="Path-22" fill="#D1F2FF" fill-rule="nonzero" mask="url(#mask-2)"></path>
                <rect id="Rectangle-6-Copy-5" fill="#D1F2FF" mask="url(#mask-2)" x="862" y="514" width="10" height="38"></rect>
                <path d="M467,544.5 L467,517.496795 L467.000002,517.496795 C467.000002,510.869379 472.372584,505.496796 479,505.496795 L495.49679,505.496791 L495.49679,505.496791 C501.849837,505.496791 506.999999,510.646952 507,516.999999 C507,516.999999 507,517 507,517 L507,517 L511,517.001717 L511,472 L511,472 C511,465.372583 516.372583,460 523,460 L751.013138,460 L751.013138,460 C757.640555,460 763.013138,465.372583 763.013138,472 L763.013138,517.001717 L767.013138,517 L767.013138,517 L767.013138,517 C767.013138,510.647462 772.162887,505.497713 778.515425,505.497713 C778.515732,505.497713 778.51604,505.497713 778.516348,505.497713 L795.013138,505.499037 L795.013138,505.5 C801.640179,505.500532 807.012175,510.872959 807.012175,517.5 L807.013138,544.503205 L467,544.5 Z" id="Path-2" fill="#D1F2FF" mask="url(#mask-2)"></path>
                <path d="M467,544.5 L467,517.496795 L467.000002,517.496795 C467.000002,510.869379 472.372584,505.496796 479,505.496795 L495.49679,505.496791 L495.49679,505.496791 C501.849837,505.496791 506.999999,510.646952 507,516.999999 C507,516.999999 507,517 507,517 L507,517 L507,524 L507,524 C507,526.761424 509.238576,529 512,529 L762.013138,529 L762.013138,529 C764.774561,529 767.013138,526.761424 767.013138,524 L767.013138,517 L767.013138,517 L767.013138,517 C767.013138,510.647462 772.162887,505.497713 778.515425,505.497713 C778.515732,505.497713 778.51604,505.497713 778.516348,505.497713 L795.013138,505.499037 L795.013138,505.5 C801.640179,505.500532 807.012175,510.872959 807.012175,517.5 L807.013138,544.503205 L467,544.5 Z" id="Path-2-Copy" fill="#AAE0F6" mask="url(#mask-2)"></path>
                <path d="M267,532.5 L251,458.5 C257.666667,451.833333 265.833333,451.833333 275.5,458.5 C280.5,472.833333 286.666667,492 294,516 L374.501553,516 C383.167184,516.333333 387.5,521.833333 387.5,532.5 C387.5,543.166667 347.333333,543.166667 267,532.5 Z" id="Path-5" fill="#AAE0F6" mask="url(#mask-2)"></path>
                <g id="Rectangle" mask="url(#mask-2)">
                    <use fill="#FFFFFF" fill-rule="evenodd" xlink:href="#path-3"></use>
                    <rect stroke="#D6F3FF" stroke-width="4" x="204" y="281" width="96" height="116" rx="8"></rect>
                </g>
                <g id="Rectangle-Copy-4" mask="url(#mask-2)">
                    <use fill="#FFFFFF" fill-rule="evenodd" xlink:href="#path-4"></use>
                    <rect stroke="#D6F3FF" stroke-width="4" x="1116" y="295" width="51" height="65" rx="8"></rect>
                </g>
                <g id="Path-3" mask="url(#mask-2)">
                    <use fill="#FFFFFF" fill-rule="evenodd" xlink:href="#path-5"></use>
                    <path stroke="#D6F3FF" stroke-width="4" d="M306.043807,441 L324.7838,441 C325.230005,441 325.62222,440.70438 325.74512,440.275434 L333.481062,413.275434 C333.63318,412.744512 333.326098,412.190798 332.795176,412.03868 C332.705615,412.013019 332.612907,412 332.519742,412 L314.225625,412 C313.785044,412 313.396373,412.288346 313.268601,412.709993 L305.086783,439.709993 C304.926616,440.238543 305.22525,440.796858 305.7538,440.957024 C305.847833,440.985519 305.945552,441 306.043807,441 Z"></path>
                </g>
                <polygon id="Path-4" fill="#D1F2FF" mask="url(#mask-2)" points="331.5 425 336 443 331.5 443 328 431"></polygon>
                <path d="M281.5,477.5 L294,516 L306.5,516 C297.833333,492.333333 291.5,479.5 287.5,477.5 C283.5,475.5 281.5,475.5 281.5,477.5 Z" id="Path-6" fill="#AAE0F6" mask="url(#mask-2)"></path>
                <path d="M178,449.5 C182.418278,449.5 186,441.888841 186,432.5 C186,426.240773 183.333333,418.740773 178,410 C172.666667,418.740773 170,426.240773 170,432.5 C170,441.888841 173.581722,449.5 178,449.5 Z" id="Oval" fill="#D1F2FF" mask="url(#mask-2)"></path>
                <path d="M1142,449.5 C1146.41828,449.5 1150,441.888841 1150,432.5 C1150,426.240773 1147.33333,418.740773 1142,410 C1136.66667,418.740773 1134,426.240773 1134,432.5 C1134,441.888841 1137.58172,449.5 1142,449.5 Z" id="Oval-Copy-2" fill="#D1F2FF" mask="url(#mask-2)"></path>
                <path d="M880,511.5 C884.418278,511.5 888,503.888841 888,494.5 C888,485.111159 884,472 880,472 C876,472 872,485.111159 872,494.5 C872,503.888841 875.581722,511.5 880,511.5 Z" id="Oval-Copy-4" fill="#D1F2FF" mask="url(#mask-2)"></path>
                <path d="M877.852735,451 C876.519402,455 874.186068,456.333333 870.852735,455 C865.852735,453 873.852735,449.5 874.852735,449.5 C875.852735,449.5 867.352735,452 867.352735,448 C867.352735,444 874.852735,445 875.352735,446.5 C875.852735,448 869.852735,440 874.852735,439 C879.852735,438 878.352735,444.5 878.352735,445 C878.352735,445.5 881.352735,437.5 884.352735,440 C887.352735,442.5 883.852735,445.5 881.852735,446 C879.852735,446.5 890.352735,446.5 888.852735,449.5 C887.352735,452.5 881.352735,451 880.852735,449.5 C880.352735,448 886.852735,454.5 883.852735,456.5 C881.852735,457.833333 879.852735,456 877.852735,451 Z" id="Path-23" fill="#D1F2FF" mask="url(#mask-2)"></path>
                <circle id="Oval-3" fill="#FFFFFF" mask="url(#mask-2)" cx="878.352735" cy="448" r="2"></circle>
                <path d="M177.906393,415 C200.597175,415 197.664662,413.206897 195.657137,408.724138 C193.649613,404.241379 187.709859,389 177.906393,389 C168.102928,389 161.740537,404.241379 160.15565,408.724138 C158.570762,413.206897 155.215612,415 177.906393,415 Z" id="Oval-Copy" fill="#D1F2FF" mask="url(#mask-2)"></path>
                <path d="M1141.90639,415 C1164.59718,415 1161.66466,413.206897 1159.65714,408.724138 C1157.64961,404.241379 1151.70986,389 1141.90639,389 C1132.10293,389 1125.74054,404.241379 1124.15565,408.724138 C1122.57076,413.206897 1119.21561,415 1141.90639,415 Z" id="Oval-Copy-3" fill="#D1F2FF" mask="url(#mask-2)"></path>
                <path d="M74.5,533 C69.9654997,467.903049 83.2988331,418.903049 114.5,386 C169.5,328 256.5,333 286,373.5" id="Path-7" stroke="#BAE3F6" stroke-width="5" mask="url(#mask-2)"></path>
                <polygon id="Path-8" fill="#FFFFFF" opacity="0.400000006" style="mix-blend-mode: soft-light;" mask="url(#mask-2)" points="270 403.5 187 538 495.5 538 305 391"></polygon>
                <circle id="Oval-4" fill="#FFFFFF" mask="url(#mask-2)" cx="290" cy="402" r="8"></circle>
                <path d="M258.676291,401.905445 C258.18926,399.817624 257.931724,397.641609 257.931724,395.405445 C257.931724,379.665329 270.691609,366.905445 286.431724,366.905445 C302.171839,366.905445 314.931724,379.665329 314.931724,395.405445 C314.931724,397.641609 314.674188,399.817624 314.187157,401.905445 L258.676291,401.905445 Z" id="Combined-Shape" fill="#AAE0F6" mask="url(#mask-2)" transform="translate(286.431724, 384.405445) rotate(-10.000000) translate(-286.431724, -384.405445) "></path>
                <path d="M881,475.5 C880.6474,462.330873 880.091635,454.330873 879.332706,451.5 C879.061197,450.487246 878.320955,451.14191 878,450.5 C876.859653,448.219305 879,451.168986 879,465 C879,469 879.884451,474.620791 880,475.5 C880.165644,476.760382 880.498977,476.760382 881,475.5 Z" id="Path-9" fill="#D1F2FF" mask="url(#mask-2)"></path>
            </g>
        </g>
    </g>
</svg>